<svg width="17" height="28" viewBox="0 0 17 28" fill="none" xmlns="http://www.w3.org/2000/svg">
<path fill-rule="evenodd" clip-rule="evenodd" d="M15.775 10.096L15.6583 9.89598C15.5078 9.65414 15.2956 9.45313 15.0417 9.31199L9.45 6.216C9.19683 6.075 8.90942 6.0005 8.61667 6H8.375C8.08225 6.0005 7.79483 6.075 7.54167 6.216L1.95 9.31999C1.69747 9.46019 1.48772 9.66156 1.34167 9.90398L1.225 10.104C1.07812 10.3471 1.00052 10.623 1 10.904V17.104C1.00052 17.385 1.07812 17.6609 1.225 17.9039L1.34167 18.1039C1.49149 18.3435 1.70041 18.5441 1.95 18.6879L7.55 21.7839C7.80192 21.9279 8.09017 22.0026 8.38333 21.9999H8.61667C8.90942 21.9995 9.19683 21.925 9.45 21.7839L15.0417 18.6799C15.2967 18.5429 15.5072 18.3407 15.65 18.0959L15.775 17.896C15.9201 17.6522 15.9976 17.3768 16 17.096V10.896C15.9995 10.615 15.9219 10.3391 15.775 10.096ZM8.375 7.59999H8.61667L13.5 10.304L8.5 13.072L3.5 10.304L8.375 7.59999ZM9.33333 19.9999L14.2083 17.296L14.3333 17.096V11.688L9.33333 14.464V19.9999Z" fill="#0F0F1E"/>
</svg>
