<svg width="25" height="24" viewBox="0 0 25 24" fill="none" xmlns="http://www.w3.org/2000/svg">
<path d="M18.8202 6.1725C17.6495 5.62475 16.3977 5.22667 15.089 5C14.9283 5.29058 14.7405 5.68142 14.6111 5.99234C13.2199 5.78312 11.8415 5.78312 10.4759 5.99234C10.3464 5.68142 10.1544 5.29058 9.99224 5C8.68213 5.22667 7.42891 5.62621 6.2582 6.1754C3.89686 9.74369 3.25674 13.2233 3.5768 16.6536C5.14296 17.8232 6.66076 18.5336 8.15295 18.9986C8.52138 18.4915 8.84997 17.9525 9.13304 17.3844C8.59392 17.1795 8.07756 16.9267 7.58966 16.6333C7.71909 16.5374 7.84571 16.4371 7.96803 16.334C10.9439 17.7258 14.1772 17.7258 17.1175 16.334C17.2413 16.4371 17.3678 16.5374 17.4959 16.6333C17.0065 16.9282 16.4887 17.181 15.9496 17.3859C16.2327 17.9525 16.5599 18.493 16.9297 19C18.4233 18.5351 19.9425 17.8246 21.5087 16.6536C21.8843 12.6771 20.8672 9.22936 18.8202 6.1725ZM9.53846 14.544C8.64514 14.544 7.91254 13.7101 7.91254 12.6945C7.91254 11.6789 8.62949 10.8435 9.53846 10.8435C10.4474 10.8435 11.18 11.6775 11.1644 12.6945C11.1658 13.7101 10.4474 14.544 9.53846 14.544ZM15.5471 14.544C14.6537 14.544 13.9212 13.7101 13.9212 12.6945C13.9212 11.6789 14.6381 10.8435 15.5471 10.8435C16.456 10.8435 17.1886 11.6775 17.173 12.6945C17.173 13.7101 16.456 14.544 15.5471 14.544Z" fill="#4285F4"/>
</svg>
