<svg width="25" height="24" viewBox="0 0 25 24" fill="none" xmlns="http://www.w3.org/2000/svg">
<path d="M21.4716 12.3783C21.4716 11.7551 21.4211 11.1286 21.3133 10.5156H12.667V14.0455H17.6183C17.4129 15.184 16.7527 16.1911 15.786 16.8311V19.1215H18.7399C20.4746 17.5249 21.4716 15.1672 21.4716 12.3783Z" fill="#4285F4"/>
<path d="M12.6671 21.332C15.1394 21.332 17.2244 20.5203 18.7435 19.1191L15.7895 16.8287C14.9677 17.3878 13.9067 17.7044 12.6705 17.7044C10.2791 17.7044 8.25138 16.091 7.52384 13.9219H4.47559V16.283C6.03171 19.3784 9.20123 21.332 12.6671 21.332Z" fill="#34A853"/>
<path d="M7.51999 13.9255C7.13602 12.7871 7.13602 11.5543 7.51999 10.4158V8.05469H4.47511C3.17496 10.6449 3.17496 13.6965 4.47511 16.2867L7.51999 13.9255Z" fill="#FBBC04"/>
<path d="M12.6671 6.62821C13.974 6.608 15.2371 7.09977 16.1836 8.00245L18.8007 5.38533C17.1435 3.82921 14.9441 2.97367 12.6671 3.00062C9.20123 3.00062 6.03171 4.9542 4.47559 8.05298L7.52048 10.4141C8.24465 8.2416 10.2757 6.62821 12.6671 6.62821Z" fill="#EA4335"/>
</svg>
