<svg width="24" height="24" viewBox="0 0 24 24" fill="none" xmlns="http://www.w3.org/2000/svg">
<path d="M20.9716 12.3783C20.9716 11.7551 20.9211 11.1286 20.8133 10.5156H12.167V14.0455H17.1183C16.9129 15.184 16.2527 16.1911 15.286 16.8311V19.1215H18.2399C19.9746 17.5249 20.9716 15.1672 20.9716 12.3783Z" fill="white"/>
<path d="M12.1671 21.332C14.6394 21.332 16.7244 20.5203 18.2435 19.1191L15.2895 16.8287C14.4677 17.3878 13.4067 17.7044 12.1705 17.7044C9.77907 17.7044 7.75138 16.091 7.02384 13.9219H3.97559V16.283C5.53171 19.3784 8.70123 21.332 12.1671 21.332Z" fill="white"/>
<path d="M7.01999 13.9255C6.63602 12.7871 6.63602 11.5543 7.01999 10.4158V8.05469H3.97511C2.67496 10.6449 2.67496 13.6965 3.97511 16.2867L7.01999 13.9255Z" fill="white"/>
<path d="M12.1671 6.62821C13.474 6.608 14.7371 7.09977 15.6836 8.00245L18.3007 5.38533C16.6435 3.82921 14.4441 2.97367 12.1671 3.00062C8.70123 3.00062 5.53171 4.9542 3.97559 8.05298L7.02048 10.4141C7.74465 8.2416 9.7757 6.62821 12.1671 6.62821Z" fill="white"/>
</svg>
