<svg width="152" height="45" viewBox="0 0 152 45" fill="none" xmlns="http://www.w3.org/2000/svg">
<path d="M9.25533 0.647477H0V24.6041L9.25533 16.3488V0.647477Z" fill="#BBE71F"/>
<path d="M0 29.1365L31.9877 0V11.8165L13.3147 29.1365H0Z" fill="#BBE71F"/>
<path d="M0 44.9997L28.4155 19.5862V31.2408L13.3147 44.9997H0Z" fill="#BBE71F"/>
<path d="M22.4076 40.4673L31.9877 32.0501V44.9997H22.4076V40.4673Z" fill="#BBE71F"/>
<path d="M97.796 15.2583V10.2494H115.45V15.2583L104.598 29.962L115.424 29.962L112.535 34.8094H97.796V29.962L108.648 15.2583H97.796Z" fill="url(#paint0_linear_25287_130893)"/>
<path d="M42.8281 10.2494H48.6588V18.9747L54.2197 10.2494H60.3743L53.5177 21.5599L60.3201 34.8094H54.1655L50.2784 26.892L48.6588 29.4773V34.8094H42.8281V10.2494Z" fill="url(#paint1_linear_25287_130893)"/>
<path d="M59.9105 15.4822L62.9187 10.2101L67.6084 18.4899L72.3053 10.2494H78.2979L70.5237 23.9836V34.8094H64.855V23.9836L59.9105 15.4822Z" fill="url(#paint2_linear_25287_130893)"/>
<path d="M77.974 15.2583L80.7816 10.2494H95.6279V15.2583L84.7764 29.962H95.5744V34.8094H77.974V29.962L88.8255 15.2583H77.974Z" fill="url(#paint3_linear_25287_130893)"/>
<path d="M133.877 34.8094V10.1953H139.546L145.538 22.6369V10.1953H151.207V34.8094H145.538L139.546 22.9601V34.8094H133.877Z" fill="url(#paint4_linear_25287_130893)"/>
<path d="M117.593 34.8096V10.1953L131.709 10.1953V15.2043H123.287V19.7285H130.251V24.7374H123.287V29.908H131.709V34.8096H117.593Z" fill="url(#paint5_linear_25287_130893)"/>
<rect x="42.8281" y="36.1094" width="2.2283" height="8.8915" fill="white"/>
<rect x="47.2344" y="36.1094" width="2.2283" height="8.8915" fill="white"/>
<rect x="51.625" y="36.1094" width="2.2283" height="8.8915" fill="white"/>
<rect x="56.0156" y="36.1094" width="2.2283" height="8.8915" fill="white"/>
<rect x="60.4141" y="36.1094" width="2.2283" height="8.8915" fill="white"/>
<rect x="64.8203" y="36.1094" width="2.2283" height="8.8915" fill="white"/>
<rect x="69.2188" y="36.1094" width="2.2283" height="8.8915" fill="white"/>
<rect x="73.6094" y="36.1094" width="2.2283" height="8.8915" fill="white"/>
<rect x="78.0156" y="36.1094" width="2.2283" height="8.8915" fill="white"/>
<rect x="82.4062" y="36.1094" width="2.2283" height="8.8915" fill="white"/>
<rect x="86.7969" y="36.1094" width="2.2283" height="8.8915" fill="white"/>
<rect x="91.2031" y="36.1094" width="2.2283" height="8.8915" fill="white"/>
<rect x="95.5938" y="36.1094" width="2.2283" height="8.8915" fill="white"/>
<rect x="99.9922" y="36.1094" width="2.2283" height="8.8915" fill="white"/>
<rect x="104.391" y="36.1094" width="2.2283" height="8.8915" fill="white"/>
<rect x="108.789" y="36.1094" width="2.2283" height="8.8915" fill="white"/>
<rect x="113.188" y="36.1094" width="2.2283" height="8.8915" fill="white"/>
<rect x="117.602" y="36.1094" width="33.6142" height="8.8915" fill="white"/>
<path d="M123.225 41.017C123.225 39.9496 124.138 38.6496 125.639 38.4313C125.547 39.156 125.395 39.9075 125.197 40.5551L125.197 40.5552C124.99 41.2403 124.778 41.7167 124.572 42.0208C124.365 42.3267 124.172 42.4471 124.006 42.4471C123.844 42.4471 123.65 42.3457 123.495 42.1135C123.34 41.8818 123.225 41.5222 123.225 41.017ZM125.937 40.73C126.155 39.9786 126.306 39.1675 126.412 38.4162C127.027 38.4802 127.519 38.7251 127.87 39.0839C128.282 39.5046 128.504 40.0853 128.504 40.7242C128.504 42.1 127.501 42.8662 126.473 43.0988C126.28 43.1389 126.038 43.1712 125.778 43.1955L125.698 43.203L125.74 43.2717L126.115 43.8735L126.132 43.9008L126.164 43.8967C127.142 43.7696 127.919 43.4183 128.453 42.8799C128.986 42.341 129.272 41.6183 129.272 40.7567C129.272 39.0782 128.035 37.714 126.101 37.714C124.079 37.714 122.481 39.2706 122.481 41.0658C122.481 41.7495 122.665 42.3051 122.945 42.6911C123.225 43.0769 123.604 43.2953 123.99 43.2953C124.386 43.2953 124.75 43.0668 125.074 42.6359C125.398 42.2053 125.687 41.5666 125.937 40.7304L125.937 40.73ZM130.517 38.755H130.467V38.805V39.3986V39.4486H130.517H131.69V44.2537V44.3037H131.74H132.367H132.417V44.2537V43.6938H137.64H137.69V43.6438V43.0582V43.0082H137.64H132.417V39.4486H133.833V42.0742V42.1242H133.883H134.502H134.552V42.0742V41.7257H135.984V42.0335V42.0835H136.034H136.646H136.696V42.0335V39.4486H137.917H137.967V39.3986V38.805V38.755H137.917H136.696V36.902V36.852H136.646H136.034H135.984V36.902V38.755H134.552V36.8125V36.7625H134.502H133.883H133.833V36.8125V38.755H132.417V36.9833V36.9333H132.367H131.74H131.69V36.9833V38.755H130.517ZM134.552 41.0483V39.4486H135.984V41.0483H134.552ZM140.379 38.9525H142.145V39.739H140.379V38.9525ZM144.647 38.3646H142.865V37.5944H144.647V38.3646ZM140.379 37.5944H142.145V38.3646H140.379V37.5944ZM144.647 39.739H142.865V38.9525H144.647V39.739ZM139.718 40.3432H141.246C140.618 40.941 139.684 41.4516 138.791 41.709L138.704 41.7343L138.772 41.7946C138.906 41.9124 139.082 42.136 139.179 42.288L139.2 42.3218L139.238 42.3083C139.808 42.1048 140.4 41.802 140.931 41.4336V41.879C140.931 42.1759 140.895 42.5124 140.686 42.8403C140.478 43.1681 140.093 43.4938 139.383 43.7596L139.304 43.7888L139.367 43.844C139.504 43.9642 139.695 44.1716 139.781 44.3195L139.802 44.3569L139.843 44.3408C140.641 44.0204 141.095 43.6094 141.348 43.1749C141.601 42.741 141.65 42.2896 141.65 41.8953V41.3911V41.3411H141.6H141.061C141.472 41.042 141.84 40.7039 142.126 40.3432H142.972C143.254 40.7083 143.614 41.046 144.019 41.3411H143.573H143.523V41.3911V44.2293V44.2793H143.573H144.2H144.25V44.2293V41.5015C144.749 41.8321 145.302 42.0988 145.855 42.2763L145.895 42.2889L145.914 42.2529C146.002 42.0942 146.178 41.8632 146.311 41.7458L146.381 41.6838L146.291 41.6599C145.364 41.4155 144.436 40.9344 143.821 40.3432H145.325H145.375V40.2932V37.0321V36.9821H145.325H139.718H139.668V37.0321V40.2932V40.3432H139.718Z" fill="#0F0F1E" stroke="#0F0F1E" stroke-width="0.1"/>
<defs>
<linearGradient id="paint0_linear_25287_130893" x1="1.34579" y1="16.0769" x2="136.223" y2="25.7747" gradientUnits="userSpaceOnUse">
<stop stop-color="#C6FB0B"/>
<stop offset="1" stop-color="#00C5FF"/>
</linearGradient>
<linearGradient id="paint1_linear_25287_130893" x1="1.34579" y1="16.0769" x2="136.223" y2="25.7747" gradientUnits="userSpaceOnUse">
<stop stop-color="#C6FB0B"/>
<stop offset="1" stop-color="#00C5FF"/>
</linearGradient>
<linearGradient id="paint2_linear_25287_130893" x1="1.34579" y1="16.0769" x2="136.223" y2="25.7747" gradientUnits="userSpaceOnUse">
<stop stop-color="#C6FB0B"/>
<stop offset="1" stop-color="#00C5FF"/>
</linearGradient>
<linearGradient id="paint3_linear_25287_130893" x1="1.34579" y1="16.0769" x2="136.223" y2="25.7747" gradientUnits="userSpaceOnUse">
<stop stop-color="#C6FB0B"/>
<stop offset="1" stop-color="#00C5FF"/>
</linearGradient>
<linearGradient id="paint4_linear_25287_130893" x1="1.34579" y1="16.0769" x2="136.223" y2="25.7747" gradientUnits="userSpaceOnUse">
<stop stop-color="#C6FB0B"/>
<stop offset="1" stop-color="#00C5FF"/>
</linearGradient>
<linearGradient id="paint5_linear_25287_130893" x1="1.34579" y1="16.0769" x2="136.223" y2="25.7747" gradientUnits="userSpaceOnUse">
<stop stop-color="#C6FB0B"/>
<stop offset="1" stop-color="#00C5FF"/>
</linearGradient>
</defs>
</svg>
