<svg width="24" height="24" viewBox="0 0 24 24" fill="none" xmlns="http://www.w3.org/2000/svg">
<path d="M16.1139 9.28737C16.6659 8.73537 17.2139 7.44737 14.9139 9.01137C12.7654 10.49 10.6023 11.9475 8.42492 13.3834C8.09336 13.5333 7.73491 13.6147 7.37112 13.6226C7.00732 13.6305 6.64568 13.5648 6.30792 13.4294C4.92792 13.0154 3.31692 12.4634 3.31692 12.4634C3.31692 12.4634 2.21692 11.7724 4.09992 11.0364C4.09992 11.0364 12.0609 7.76937 14.8219 6.61837C15.8799 6.15837 19.4689 4.68637 19.4689 4.68637C19.4689 4.68637 21.1259 4.04137 20.9879 5.60637C20.9419 6.25037 20.5739 8.50637 20.2059 10.9444C19.6529 14.3954 19.0549 18.1694 19.0549 18.1694C19.0549 18.1694 18.9629 19.2274 18.1809 19.4114C17.3438 19.3972 16.535 19.106 15.8809 18.5834C15.6969 18.4454 12.4299 16.3744 11.2329 15.3624C11.1112 15.2799 11.0122 15.1679 10.9454 15.037C10.8785 14.906 10.8458 14.7602 10.8504 14.6132C10.855 14.4662 10.8967 14.3228 10.9716 14.1962C11.0465 14.0696 11.1522 13.9641 11.2789 13.8894C12.9207 12.3873 14.5326 10.853 16.1139 9.28737Z" fill="white"/>
</svg>
